inDegrees=no
num_controls=7
num_derivatives=13
num_iterations=94
num_multipliers=7
num_parameters=0
num_slacks=7
num_states=26
objective=5.536117
objective_accelerations=0.711581
objective_balance=0.044253
objective_effort=0.275024
objective_height=4.436919
objective_ligament=0.068340
solver_duration=1056.978675
status=Solve_Succeeded
success=true
DataType=double
version=3
OpenSimVersion=4.4-2022-07-23-0e9fedc
endheader
time	/jointset/ground_pelvis/pelvis_tilt/value	/jointset/ground_pelvis/pelvis_tx/value	/jointset/ground_pelvis/pelvis_ty/value	/jointset/hip_l/hip_flexion_l/value	/jointset/hip_l/hip_adduction_l/value	/jointset/hip_l/hip_rotation_l/value	/jointset/back/lumbar_extension/value	/jointset/patellofemoral_l/patellar_flexion_l/value	/jointset/knee_l/knee_flexion_l/value	/jointset/knee_l/knee_adduction_l/value	/jointset/knee_l/knee_rotation_l/value	/jointset/ankle_l/ankle_angle_l/value	/jointset/subtalar_l/subtalar_angle_l/value	/jointset/ground_pelvis/pelvis_tilt/speed	/jointset/ground_pelvis/pelvis_tx/speed	/jointset/ground_pelvis/pelvis_ty/speed	/jointset/hip_l/hip_flexion_l/speed	/jointset/hip_l/hip_adduction_l/speed	/jointset/hip_l/hip_rotation_l/speed	/jointset/back/lumbar_extension/speed	/jointset/patellofemoral_l/patellar_flexion_l/speed	/jointset/knee_l/knee_flexion_l/speed	/jointset/knee_l/knee_adduction_l/speed	/jointset/knee_l/knee_rotation_l/speed	/jointset/ankle_l/ankle_angle_l/speed	/jointset/subtalar_l/subtalar_angle_l/speed	/forceset/tau_hip_flexion_l	/forceset/tau_hip_adduction_l	/forceset/tau_hip_rotation_l	/forceset/tau_knee_flexion_l	/forceset/tau_ankle_angle_l	/forceset/tau_subtalar_angle_l	/forceset/tau_lumbar_extension	lambda_cid13_p0	lambda_cid13_p1	lambda_cid13_p2	lambda_cid13_p3	lambda_cid13_p4	lambda_cid13_p5	lambda_cid14_p0	/jointset/ground_pelvis/pelvis_tilt/accel	/jointset/ground_pelvis/pelvis_tx/accel	/jointset/ground_pelvis/pelvis_ty/accel	/jointset/hip_l/hip_flexion_l/accel	/jointset/hip_l/hip_adduction_l/accel	/jointset/hip_l/hip_rotation_l/accel	/jointset/back/lumbar_extension/accel	/jointset/patellofemoral_l/patellar_flexion_l/accel	/jointset/knee_l/knee_flexion_l/accel	/jointset/knee_l/knee_adduction_l/accel	/jointset/knee_l/knee_rotation_l/accel	/jointset/ankle_l/ankle_angle_l/accel	/jointset/subtalar_l/subtalar_angle_l/accel	gamma_cid13_p0	gamma_cid13_p1	gamma_cid13_p2	gamma_cid13_p3	gamma_cid13_p4	gamma_cid13_p5	gamma_cid14_p0
0.5	-0.3341763009940628	-0.02751209163999703	0.762230050334669	1.081098173463099	-0.4371365214845747	-0.2222734436728988	-0.2534594475068278	0.8136799584021723	0.8136799584025537	-0.1248497816907443	-0.1581588715345958	0.1276437926138931	-0.02203424035923722	-0.7561106563341764	-0.1942694200085836	-0.5250932723566248	2.434453740291421	-0.2085111856616209	0.7432567353481948	-0.1211337038696123	2.008704755919747	2.008704755919775	0.1381997002993599	-0.08925276183123973	0.5048633199322826	0.02275796496120428	-0.1676350459552833	0.04086124426489209	-0.01114685598001477	-0.2123544319613336	0.05384441142939012	0.03052834286551365	0.1660461760029751	-15.49645789104788	-13.42317603555278	5.09151137712742	-4.362982329292795	-521.6873594642025	-49.86298183902187	-24.81651047413439	0.7558921347473316	0.5486526118844524	-0.4708459326408356	-1.281194128810408	0.726142027914127	-0.2182719418407177	1.060588190732858	-1.270672855264242	-1.270672855264249	0.08477828275313511	0.1761170421903956	-0.5477192413692323	0.520320226036871	-5.703519703194761e-07	-4.513073407114511e-07	2.928137015148263e-06	1.467525237338279e-07	-6.559053258629422e-07	-9.629743548330408e-08	-4.647791928682158e-07
0.51	-0.3416977594507968	-0.02942709924608245	0.7569567407177603	1.105373816137358	-0.4391864724742178	-0.2148506113276128	-0.2546188859495708	0.8337003042708681	0.833700304271375	-0.1234679015131279	-0.1590421680924558	0.1326637707187721	-0.02178262849795513	-0.7480709684326277	-0.1887142393157642	-0.5294549676735886	2.420335666311766	-0.2014634121985486	0.7411937950566698	-0.110789668976817	1.995093078306476	1.995093078306489	0.1381799567983308	-0.08740959103868665	0.4990526612019495	0.02755019213120979	-0.1730861301953086	0.04180477788824079	-0.01123004721926594	-0.2149954075251858	0.05285935200455454	0.03081016367250361	0.1702182979488834	-16.00195014420161	-13.41031750923567	5.036066055591414	-4.236040923551529	-525.271420866483	-49.41786677073492	-23.88953438248436	0.8444477751751249	0.5616621060943373	-0.401907718068911	-1.528065004631217	0.6960899426761699	-0.218105308782497	1.015958495264088	-1.447023791422281	-1.447023791424051	-0.04476015750238076	0.1885513479850553	-0.6096809839658234	0.4562588416095685	-5.569929886979134e-07	-3.396527224218273e-07	2.984792395552976e-06	1.732021988223322e-07	-6.357988595628242e-07	-1.255706084645731e-08	-4.581898011355856e-07
0.52	-0.3491355328971427	-0.03128601278361799	0.7516431988703107	1.129498087877244	-0.4411655467418046	-0.2074519684322328	-0.2556759545720866	0.8535764116482629	0.8535764116485879	-0.1220861006691355	-0.1599070060917593	0.1376232538773529	-0.02148357738914617	-0.7393736542384743	-0.1830506062986094	-0.5331397184645635	2.40417955344848	-0.1943358412487249	0.738418845326329	-0.1006597398154908	1.979857057610638	1.979857057610637	0.1381838336586144	-0.08556105023820465	0.4927643306675918	0.03224581446638162	-0.1785372144360036	0.04274831151226172	-0.01131323846531805	-0.2176363830885312	0.05187429258009536	0.03109198448059767	0.1743904198937664	-16.51060680694358	-13.39747825831129	4.981280653762157	-4.143624800019473	-528.929100006253	-49.03357578669116	-22.96390546751866	0.8874173932685812	0.5703430767509988	-0.335457027443173	-1.688801905536896	0.7421015252639956	-0.3606738296040701	1.017767044439213	-1.59554147177743	-1.595541471777291	0.08950235501583934	0.1771910437758736	-0.6432536021748423	0.5009992590696923	-5.433311299802595e-07	-2.34096573089601e-07	3.032034798916943e-06	1.996163927260541e-07	-6.183269448411732e-07	6.992082371503225e-08	-4.509646280584227e-07
0.53	-0.3564832639975652	-0.03308782383410529	0.7462962106552811	1.153450979814982	-0.4430729690539261	-0.2000838648545974	-0.2566328050844105	0.8732921997893959	0.8732921997895693	-0.1207045635716775	-0.1607528603650977	0.1425175437209422	-0.02113805783869382	-0.7300723305101636	-0.1773003823568972	-0.5361413271030475	2.386074568657531	-0.1871412813650087	0.7351247140916211	-0.09075921016299419	1.963039757280489	1.963039757280485	0.1380958998063474	-0.08358898514098195	0.4860189290412874	0.03683619151935753	-0.1838299118893708	0.0431829652611339	-0.01133085892316567	-0.2204113240074396	0.05087595368662474	0.03145564126210135	0.1783988941382195	-17.0229196913317	-13.421522455256	4.934637790431925	-3.985108959911321	-532.5582869059438	-48.8119695651452	-22.04137951043709	0.9664534965097296	0.5790879661044942	-0.2651449964664754	-1.920070540902812	0.7088505699422746	-0.3257473333524295	0.9688687997944553	-1.763856880829871	-1.763856880830136	-0.06202289189470735	0.2109462897280878	-0.7013731683594235	0.4344426832558522	-5.257780908644594e-07	-1.393971965304877e-07	3.05304875702724e-06	2.235111328848804e-07	-5.992287984800795e-07	1.520869943883525e-07	-4.412645489102327e-07
0.54	-0.3637349891340114	-0.0348317874625313	0.7409226799109814	1.177213077149682	-0.444908302297224	-0.1927510955017313	-0.2574921157254048	0.8928320084138593	0.8928320084138428	-0.1193247221401522	-0.1615782475778915	0.147342141603184	-0.02074735736674191	-0.7201724614259424	-0.1714811218863505	-0.5384482243183007	2.366020632865405	-0.1799180274806984	0.7313520003390694	-0.08115176554483611	1.944661154262467	1.944661154262459	0.1378447004923248	-0.08146763816237705	0.4788259383949311	0.04128199876618083	-0.1891226093431596	0.04361761901050093	-0.01134847938373239	-0.2231862649261299	0.0498776147934066	0.03181929804439096	0.1824073683819955	-17.53858724204131	-13.44637175544661	4.889715702728058	-3.861324782948503	-536.262051229596	-48.65248214340326	-21.12608110756294	1.007126464451094	0.5841503825174779	-0.1965147427970731	-2.078592105772207	0.747840325382635	-0.4563903331728985	0.9591500375717412	-1.907802009352	-1.907802009351881	0.05684926266483838	0.2070474200520205	-0.7327714061858079	0.4720852978387922	-5.039199159890081e-07	-5.670956857141431e-08	3.045044009750496e-06	2.446183923046732e-07	-5.783314171136451e-07	2.339082901215706e-07	-4.288262758111191e-07
